<svg width="80" height="120" viewBox="0 0 80 120" fill="none" xmlns="http://www.w3.org/2000/svg">
<path d="M76.3951 13.8889L76.4082 13.8779L76.4212 13.8667L77.5 12.9371V93.0102H57.7778H55.5827L55.2988 95.1869C54.551 100.92 51.1399 106.107 47.6212 110.032C45.8846 111.969 44.1756 113.539 42.8656 114.648C42.2118 115.201 41.6613 115.636 41.2616 115.94C41.0618 116.093 40.9008 116.212 40.7847 116.296C40.6748 116.376 40.6175 116.415 40.6081 116.422L40.6068 116.422L40.5477 116.462L40.4908 116.505L40 116.873L39.5092 116.505L39.4523 116.462L39.3937 116.423C39.3947 116.423 39.3936 116.423 39.3905 116.421C39.3769 116.411 39.3234 116.374 39.2249 116.302C39.1104 116.218 38.9513 116.099 38.7534 115.947C38.3577 115.643 37.8123 115.208 37.1642 114.655C35.8655 113.546 34.1693 111.975 32.4406 110.037C28.9397 106.111 25.5161 100.912 24.6973 95.158L24.3917 93.0102H22.2222H2.5V12.629L3.78765 13.6415C14.1573 22.3463 18.5788 33.4793 20.3818 42.6911C22.1791 51.8735 21.3424 59.0037 21.2752 59.545L21.2288 59.8951L20.5832 59.9625L20.4941 59.9718L20.4059 59.9875L20.3999 59.9885C19.9193 60.0739 18.0463 60.4063 16.383 61.8579C14.5703 63.4398 13.3843 66.0032 13.7561 69.7568C14.1002 73.645 16.7605 75.8211 19.2922 76.9449C21.7774 78.048 24.5135 78.342 26.0902 78.4156L27.2821 78.4713L28.075 77.5797C30.9207 74.3798 38.5073 62.2748 39.2809 29.583L39.2816 29.5534V29.5238V29.5142V29.5047V29.4951V29.4855V29.476V29.4664V29.4568V29.4473V29.4377V29.4282V29.4186V29.409V29.3995V29.3899V29.3803V29.3708V29.3612V29.3516V29.3421V29.3325V29.3229V29.3134V29.3038V29.2942V29.2847V29.2751V29.2655V29.256V29.2464V29.2368V29.2273V29.2177V29.2081V29.1986V29.189V29.1794V29.1699V29.1603V29.1507V29.1412V29.1316V29.122V29.1125V29.1029V29.0933V29.0838V29.0742V29.0646V29.0551V29.0455V29.0359V29.0264V29.0168V29.0072V28.9977V28.9881V28.9785V28.969V28.9594V28.9498V28.9403V28.9307V28.9211V28.9116V28.902V28.8924V28.8829V28.8733V28.8637V28.8542V28.8446V28.835V28.8255V28.8159V28.8063V28.7968V28.7872V28.7776V28.7681V28.7585V28.7489V28.7394V28.7298V28.7202V28.7107V28.7011V28.6915V28.682V28.6724V28.6628V28.6533V28.6437V28.6341V28.6246V28.615V28.6054V28.5959V28.5863V28.5767V28.5672V28.5576V28.548V28.5385V28.5289V28.5193V28.5098V28.5002V28.4907V28.4811V28.4715V28.462V28.4524V28.4428V28.4333V28.4237V28.4141V28.4046V28.395V28.3854V28.3759V28.3663V28.3567V28.3472V28.3376V28.328V28.3185V28.3089V28.2993V28.2898V28.2802V28.2706V28.2611V28.2515V28.2419V28.2324V28.2228V28.2132V28.2037V28.1941V28.1845V28.175V28.1654V28.1558V28.1463V28.1367V28.1271V28.1176V28.108V28.0984V28.0889V28.0793V28.0697V28.0602V28.0506V28.041V28.0315V28.0219V28.0123V28.0028V27.9932V27.9836V27.9741V27.9645V27.9549V27.9454V27.9358V27.9262V27.9167V27.9071V27.8975V27.888V27.8784V27.8688V27.8593V27.8497V27.8401V27.8306V27.821V27.8114V27.8019V27.7923V27.7827V27.7732V27.7636V27.754V27.7445V27.7349V27.7253V27.7158V27.7062V27.6966V27.6871V27.6775V27.6679V27.6584V27.6488V27.6392V27.6297V27.6201V27.6105V27.601V27.5914V27.5818V27.5723V27.5627V27.5532V27.5436V27.534V27.5245V27.5149V27.5053V27.4958V27.4862V27.4766V27.4671V27.4575V27.4479V27.4384V27.4288V27.4192V27.4097V27.4001V27.3905V27.381V27.3714V27.3618V27.3523V27.3427V27.3331V27.3236V27.314V27.3044V27.2949V27.2853V27.2757V27.2662V27.2566V27.247V27.2375V27.2279V27.2183V27.2088V27.1992V27.1896V27.1801V27.1705V27.1609V27.1514V27.1418V27.1322V27.1227V27.1131V27.1035V27.094V27.0844V27.0748V27.0653V27.0557V27.0461V27.0366V27.027V27.0174V27.0079V26.9983V26.9887V26.9792V26.9696V26.96V26.9505V26.9409V26.9313V26.9218V26.9122V26.9026V26.8931V26.8835V26.8739V26.8644V26.8548V26.8452V26.8357V26.8261V26.8165V26.807V26.7974V26.7878V26.7783V26.7687V26.7591V26.7496V26.74V26.7304V26.7209V26.7113V26.7017V26.6922V26.6826V26.673V26.6635V26.6539V26.6443V26.6348V26.6252V26.6156V26.6061V26.5965V26.587V26.5774V26.5678V26.5583V26.5487V26.5391V26.5296V26.52V26.5104V26.5009V26.4913V26.4817V26.4722V26.4626V26.453V26.4435V26.4339V26.4243V26.4148V26.4052V26.3956V26.3861V26.3765V26.3669V26.3574V26.3478V26.3382V26.3287V26.3191V26.3095V26.3V26.2904V26.2808V26.2713V26.2617V26.2521V26.2426V26.233V26.2234V26.2139V26.2043V26.1947V26.1852V26.1756V26.166V26.1565V26.1469V26.1373V26.1278V26.1182V26.1086V26.0991V26.0895V26.0799V26.0704V26.0608V26.0512V26.0417V26.0321V26.0225V26.013V26.0034V25.9938V25.9843V25.9747V25.9651V25.9556V25.946V25.9364V25.9269V25.9173V25.9077V25.8982V25.8886V25.879V25.8695V25.8599V25.8503V25.8408V25.8312V25.8216V25.8121V25.8025V25.7929V25.7834V25.7738V25.7642V25.7547V25.7451V25.7355V25.726V25.7164V25.7068V25.6973V25.6877V25.6781V25.6686V25.659V25.6495V25.6399V25.6303V25.6208V25.6112V25.6016V25.5921V25.5825V25.5729V25.5634V25.5538V25.5442V25.5347V25.5251V25.5155V25.506V25.4964V25.4868V25.4773V25.4677V25.4581V25.4486V25.439V25.4294V25.4199V25.4103V25.4007V25.3912V25.3816V25.372V25.3625V25.3529V25.3433V25.3338V25.3242V25.3146V25.3051V25.2955V25.2859V25.2764V25.2668V25.2572V25.2477V25.2381V25.2285V25.219V25.2094V25.1998V25.1903V25.1807V25.1711V25.1616V25.152V25.1424V25.1329V25.1233V25.1137V25.1042V25.0946V25.085V25.0755V25.0659V25.0563V25.0468V25.0372V25.0276V25.0181V25.0085V24.9989V24.9894V24.9798V24.9702V24.9607V24.9511V24.9415V24.932V24.9224V24.9128V24.9033V24.8937V24.8841V24.8746V24.865V24.8554V24.8459V24.8363V24.8267V24.8172V24.8076V24.798V24.7885V24.7789V24.7693V24.7598V24.7502V24.7406V24.7311V24.7215V24.712V24.7024V24.6928V24.6833V24.6737V24.6641V24.6546V24.645V24.6354V24.6259V24.5596L39.2781 24.4935L36.7816 24.6259C39.2781 24.4935 39.2781 24.4934 39.2781 24.4933L39.2781 24.4928L39.278 24.4911L39.2776 24.4845L39.2763 24.459L39.2709 24.3599L39.2503 23.9818C39.2322 23.654 39.2057 23.181 39.1721 22.5982C39.1048 21.4329 39.0086 19.8275 38.8931 18.0676C38.6873 14.9314 38.416 11.2367 38.1333 8.68076L40.0801 5.22432L42.0242 8.91419C41.74 11.4714 41.467 15.1877 41.2602 18.3397C41.1447 20.0996 41.0485 21.705 40.9812 22.8703C40.9475 23.4531 40.921 23.9262 40.903 24.2539L40.8823 24.6321L40.877 24.7311L40.8756 24.7566L40.8753 24.7632L40.8752 24.7649L40.8752 24.7654C40.8752 24.7655 40.8752 24.7656 43.3716 24.898L40.8752 24.7656L40.8716 24.8317V24.898V24.9075V24.9171V24.9267V24.9362V24.9458V24.9554V24.9649V24.9745V24.9841V24.9936V25.0032V25.0128V25.0223V25.0319V25.0415V25.051V25.0606V25.0702V25.0797V25.0893V25.0989V25.1084V25.118V25.1276V25.1371V25.1467V25.1563V25.1658V25.1754V25.1849V25.1945V25.2041V25.2136V25.2232V25.2328V25.2423V25.2519V25.2615V25.271V25.2806V25.2902V25.2997V25.3093V25.3189V25.3284V25.338V25.3476V25.3571V25.3667V25.3763V25.3858V25.3954V25.405V25.4145V25.4241V25.4337V25.4432V25.4528V25.4624V25.4719V25.4815V25.4911V25.5006V25.5102V25.5198V25.5293V25.5389V25.5485V25.558V25.5676V25.5772V25.5867V25.5963V25.6059V25.6154V25.625V25.6346V25.6441V25.6537V25.6633V25.6728V25.6824V25.692V25.7015V25.7111V25.7207V25.7302V25.7398V25.7494V25.7589V25.7685V25.7781V25.7876V25.7972V25.8068V25.8163V25.8259V25.8355V25.845V25.8546V25.8642V25.8737V25.8833V25.8929V25.9024V25.912V25.9216V25.9311V25.9407V25.9503V25.9598V25.9694V25.979V25.9885V25.9981V26.0077V26.0172V26.0268V26.0364V26.0459V26.0555V26.0651V26.0746V26.0842V26.0938V26.1033V26.1129V26.1224V26.132V26.1416V26.1511V26.1607V26.1703V26.1798V26.1894V26.199V26.2085V26.2181V26.2277V26.2372V26.2468V26.2564V26.2659V26.2755V26.2851V26.2946V26.3042V26.3138V26.3233V26.3329V26.3425V26.352V26.3616V26.3712V26.3807V26.3903V26.3999V26.4094V26.419V26.4286V26.4381V26.4477V26.4573V26.4668V26.4764V26.486V26.4955V26.5051V26.5147V26.5242V26.5338V26.5434V26.5529V26.5625V26.5721V26.5816V26.5912V26.6008V26.6103V26.6199V26.6295V26.639V26.6486V26.6582V26.6677V26.6773V26.6869V26.6964V26.706V26.7156V26.7251V26.7347V26.7443V26.7538V26.7634V26.773V26.7825V26.7921V26.8017V26.8112V26.8208V26.8304V26.8399V26.8495V26.8591V26.8686V26.8782V26.8878V26.8973V26.9069V26.9165V26.926V26.9356V26.9452V26.9547V26.9643V26.9739V26.9834V26.993V27.0026V27.0121V27.0217V27.0313V27.0408V27.0504V27.0599V27.0695V27.0791V27.0886V27.0982V27.1078V27.1173V27.1269V27.1365V27.146V27.1556V27.1652V27.1747V27.1843V27.1939V27.2034V27.213V27.2226V27.2321V27.2417V27.2513V27.2608V27.2704V27.28V27.2895V27.2991V27.3087V27.3182V27.3278V27.3374V27.3469V27.3565V27.3661V27.3756V27.3852V27.3948V27.4043V27.4139V27.4235V27.433V27.4426V27.4522V27.4617V27.4713V27.4809V27.4904V27.5V27.5096V27.5191V27.5287V27.5383V27.5478V27.5574V27.567V27.5765V27.5861V27.5957V27.6052V27.6148V27.6244V27.6339V27.6435V27.6531V27.6626V27.6722V27.6818V27.6913V27.7009V27.7105V27.72V27.7296V27.7392V27.7487V27.7583V27.7679V27.7774V27.787V27.7966V27.8061V27.8157V27.8253V27.8348V27.8444V27.854V27.8635V27.8731V27.8827V27.8922V27.9018V27.9114V27.9209V27.9305V27.9401V27.9496V27.9592V27.9688V27.9783V27.9879V27.9974V28.007V28.0166V28.0261V28.0357V28.0453V28.0548V28.0644V28.074V28.0835V28.0931V28.1027V28.1122V28.1218V28.1314V28.1409V28.1505V28.1601V28.1696V28.1792V28.1888V28.1983V28.2079V28.2175V28.227V28.2366V28.2462V28.2557V28.2653V28.2749V28.2844V28.294V28.3036V28.3131V28.3227V28.3323V28.3418V28.3514V28.361V28.3705V28.3801V28.3897V28.3992V28.4088V28.4184V28.4279V28.4375V28.4471V28.4566V28.4662V28.4758V28.4853V28.4949V28.5045V28.514V28.5236V28.5332V28.5427V28.5523V28.5619V28.5714V28.581V28.5906V28.6001V28.6097V28.6193V28.6288V28.6384V28.648V28.6575V28.6671V28.6767V28.6862V28.6958V28.7054V28.7149V28.7245V28.7341V28.7436V28.7532V28.7628V28.7723V28.7819V28.7915V28.801V28.8106V28.8202V28.8297V28.8393V28.8489V28.8584V28.868V28.8776V28.8871V28.8967V28.9063V28.9158V28.9254V28.9349V28.9445V28.9541V28.9636V28.9732V28.9828V28.9923V29.0019V29.0115V29.021V29.0306V29.0402V29.0497V29.0593V29.0689V29.0784V29.088V29.0976V29.1071V29.1167V29.1263V29.1358V29.1454V29.155V29.1645V29.1741V29.1837V29.1932V29.2028V29.2124V29.2219V29.2315V29.2411V29.2506V29.2602V29.2698V29.2793V29.2889V29.2985V29.308V29.3176V29.3272V29.3367V29.3463V29.3559V29.3654V29.375V29.3846V29.3941V29.4037V29.4133V29.4228V29.4324V29.442V29.4515V29.4611V29.4707V29.4802V29.4898V29.4994V29.5089V29.5185V29.5281V29.5376V29.5472V29.5568V29.5663V29.5759V29.5855V29.595V29.6046V29.6142V29.6237V29.6333V29.6429V29.6524V29.662V29.6716V29.6811V29.6907V29.7003V29.7098V29.7194V29.729V29.7385V29.7481V29.7577V29.7672V29.7768V29.7864V29.7959V29.8255L40.8723 29.8551C41.6468 62.5813 49.2469 74.5017 52.0366 77.8039L52.8844 78.8074L54.1918 78.6784C55.5749 78.542 58.2997 78.2469 60.7801 77.1762C63.3022 76.0876 66.0493 73.9573 66.3972 70.029C66.769 66.2754 65.5829 63.712 63.7703 62.13C62.1069 60.6784 60.234 60.346 59.7533 60.2606L59.7474 60.2596L59.6592 60.2439L59.57 60.2346L58.9244 60.1672L58.8781 59.8174C58.8111 59.2777 57.9739 52.1469 59.7715 42.9632C61.5762 33.7427 66.0043 22.5973 76.3951 13.8889ZM18.4254 59.9193L20.0769 59.3608L20.1236 57.618C20.2794 51.8112 20.1709 33.9754 8.35191 19.8897L3.93678 14.6278V21.4966V66.9388V69.4388H6.43678H9.96169H12.1959L12.446 67.2186C12.9191 63.0182 15.8273 60.7979 18.4254 59.9193ZM21.9157 92.2959H24.5605L24.4118 89.6553L24.2626 87.0069C24.2649 86.4814 24.3071 84.2245 25.0504 82.0249L25.9712 79.3L23.1446 78.7677C18.2428 77.8446 14.0513 75.7859 12.8095 71.7773L12.2642 70.017H10.4215H6.43678H3.93678V72.517V89.7959V92.2959H6.43678H21.9157ZM25.6992 86.9388V87.0027L25.7025 87.0666L25.8558 90.0598L25.9772 92.432H28.3525H36.7816H39.7161L39.2499 89.5348C38.9846 87.8864 38.3858 85.706 36.8952 83.7432C35.3594 81.7208 33.0087 80.1058 29.59 79.4496L27.8233 79.1105L26.9405 80.6779C26.3399 81.7443 26.0517 82.9754 25.8989 84.0029C25.7406 85.0665 25.6992 86.1165 25.6992 86.9388ZM35.1189 111.242L39.4349 115.803V109.524V95.5102V93.0102H36.9349H28.8123H25.7992L26.3552 95.9715C27.5663 102.422 31.8243 107.76 35.1189 111.242ZM42.6572 82.6167L42.7292 82.5412C44.1171 81.085 45.7642 80.0619 47.7331 79.3627L50.7971 78.2747L48.9584 75.5931C47.0412 72.7968 44.5338 67.5341 42.4335 58.6109H37.5665C35.4728 67.506 32.9665 72.6628 31.0141 75.6339L29.2646 78.2965L32.2669 79.3627C34.114 80.0186 35.7675 81.1161 37.2186 82.4945C37.3901 82.7092 37.5504 82.887 37.6667 83.016L37.6831 83.0341C37.8427 83.2113 37.924 83.3036 38.0009 83.406L40 86.068L41.9991 83.406C42.1589 83.1932 42.2799 83.0327 42.3937 82.8938C42.4478 82.8278 42.4912 82.7779 42.5256 82.7407C42.5324 82.7333 42.5386 82.7267 42.5443 82.7208C42.5525 82.7122 42.5594 82.7052 42.5651 82.6995C42.5747 82.69 42.5794 82.6858 42.5793 82.6859L42.6572 82.6167ZM40.7184 109.388V115.461L44.9939 111.148C48.4631 107.648 52.7579 102.285 53.8077 95.9168L54.2868 93.0102H51.341H43.2184H40.7184V95.5102V109.388ZM54.4504 87.0727L54.454 87.0058V86.9388C54.454 85.4193 54.3224 82.7047 53.2598 80.6293L52.405 78.96L50.5632 79.3135C47.1446 79.9697 44.7938 81.5848 43.2581 83.6071C41.7675 85.5699 41.1687 87.7503 40.9034 89.3987L40.4372 92.2959H43.3716H51.8008H54.1703L54.2972 89.9298L54.4504 87.0727ZM60.0325 57.6882L60.1267 59.4026L61.7607 59.9301C64.4682 60.8042 67.2293 62.869 67.7065 67.2119L67.9513 69.4388H70.1916H73.7165H76.2165V66.9388V21.4966V14.574L71.7933 19.8992C59.9936 34.1054 59.7149 51.9087 60.0325 57.6882ZM55.7415 89.6553L55.5928 92.2959H58.2375H73.8697H76.3697V89.7959V72.517V70.017H73.8697H69.8851H68.091L67.5166 71.7167C66.1304 75.8187 61.8269 77.9906 57.214 78.7584L54.3153 79.2409L55.2561 82.0249C55.943 84.0575 55.907 86.1021 55.8935 86.8717C55.8927 86.9163 55.892 86.9566 55.8915 86.9924L55.7415 89.6553Z" fill="#FFDD66" stroke="#FFDD66" stroke-width="5"/>
</svg>
